Motion_pl08
version=1
nRows=12
nColumns=43
inDegrees=yes
endheader
time	pelvis_tilt	pelvis_list	pelvis_rotation	pelvis_tx	pelvis_ty	pelvis_tz	hip_flexion_r	hip_adduction_r	hip_rotation_r	knee_angle_r	ankle_angle_r	subtalar_angle_r	mtp_angle_r	hip_flexion_l	hip_adduction_l	hip_rotation_l	knee_angle_l	ankle_angle_l	subtalar_angle_l	mtp_angle_l	lumbar_extension	lumbar_bending	lumbar_rotation	neck_flexion	neck_lateral_bending	neck_rotation	arm_flex_r	arm_add_r	arm_rot_r	elbow_flex_r	pro_sup_r	wrist_flex_r	wrist_dev_r	hand_finger_flex_r	arm_flex_l	arm_add_l	arm_rot_l	elbow_flex_l	pro_sup_l	wrist_flex_l	wrist_dev_l	hand_finger_flex_l
      0.00250000	     -1.17657006	     -5.51717828	     88.17646163	      0.06722971	      1.73942139	      1.86805356	     86.24103891	     -2.73287169	      4.95455941	   -153.10144060	     23.91269534	      1.16717081	     11.28997710	     82.96996998	     -7.93931468	     18.19576417	   -151.68123513	     21.11069051	     31.14741834	     22.63611834	    -53.64848120	     -4.24658682	      2.74573061	     34.41229683	      1.17341579	     -7.28069573	     38.24572625	    -25.89067768	     -5.70646893	     77.61797831	     98.44211017	     -2.10185519	    -10.57297133	     -3.67022478	     51.34684651	    -20.53814404	      8.15626078	     53.62226836	    114.43673463	    -21.06595913	    -12.64848398	     27.37865304
      0.00500000	     -1.17215286	     -5.72817171	     88.18499979	      0.06732748	      1.73947178	      1.86680946	     86.25485036	     -2.73292397	      4.93619473	   -153.07687669	     23.95224892	      1.21132575	     11.29680318	     82.95221411	     -8.01006019	     18.20908238	   -151.62355201	     21.15833667	     31.23142809	     22.63754194	    -53.49232347	     -4.22986691	      2.68373819	     34.69973460	      1.19028792	     -7.21661042	     39.44806414	    -26.10500766	     -5.32795696	     77.74356397	     98.65084212	     -1.96019202	    -10.54077683	     -3.60944915	     52.39772326	    -20.63768826	      8.40937446	     53.63980683	    114.50228557	    -20.96879027	    -12.63809130	     27.41835907
      0.00750000	     -1.14839935	     -5.94389034	     88.20079044	      0.06740575	      1.73951697	      1.86555179	     86.26606093	     -2.72292764	      4.90603436	   -153.03676546	     23.98352543	      1.25190511	     11.30209260	     82.94061125	     -8.08130757	     18.22294709	   -151.57302268	     21.22258034	     31.32303405	     22.63420529	    -53.32226619	     -4.19121367	      2.66981965	     34.85236011	      1.14259708	     -7.14963972	     40.64440642	    -26.36527318	     -4.92140361	     77.87763427	     98.87803590	     -1.87540635	    -10.49345080	     -3.57603057	     53.50373892	    -20.75265887	      8.83645519	     53.61772325	    114.66796852	    -20.88562537	    -12.59735077	     27.45015745
      0.01000000	     -1.10952229	     -6.11587720	     88.22057018	      0.06745755	      1.73955813	      1.86426147	     86.20870741	     -2.70908893	      4.86498251	   -153.00218940	     24.01736390	      1.28403545	     11.30601074	     82.87550444	     -8.12214572	     18.27887581	   -151.52157661	     21.31725693	     31.47005104	     22.61484361	    -53.16711378	     -4.13477026	      2.69174627	     34.79602905	      1.07128562	     -7.07200507	     41.82851158	    -26.69918189	     -4.44279879	     78.04429926	     99.19196287	     -1.91499724	    -10.44062652	     -3.58642683	     54.66520525	    -20.94703948	      9.56077604	     53.56707847	    114.94711037	    -20.94369612	    -12.52845186	     27.44853252
      0.01250000	     -1.08295851	     -6.34090639	     88.22635081	      0.06747222	      1.73973475	      1.86292946	     86.18879169	     -2.69797703	      4.80508008	   -152.93318827	     24.00341582	      1.30511415	     11.30461023	     82.84639815	     -8.17971920	     18.26491616	   -151.43337963	     21.34604106	     31.52221562	     22.60748929	    -53.00903404	     -4.10622075	      2.70812962	     35.10096021	      1.07571151	     -7.08070149	     43.00709737	    -26.83910090	     -4.21204120	     78.19251256	     99.30211640	     -1.91392269	    -10.42347749	     -3.58838244	     55.78273945	    -20.87944163	      9.77373235	     53.50070737	    115.05889488	    -20.97283368	    -12.44589811	     27.42191335
      0.01500000	     -1.02832367	     -6.49708727	     88.24765779	      0.06749485	      1.73978911	      1.86151479	     86.13189077	     -2.69486781	      4.74994370	   -152.91062603	     24.02184529	      1.26394324	     11.30300287	     82.76837116	     -8.22101877	     18.34773836	   -151.41544266	     21.45816477	     31.61564703	     22.59567768	    -52.87455734	     -4.04247552	      2.78182219	     35.07014624	      0.99300006	     -7.06282279	     44.22020741	    -27.32913520	     -3.61653915	     78.37818413	     99.54294015	     -1.98404199	    -10.36943190	     -3.59662910	     57.04883541	    -21.03859392	     10.62919346	     53.37163224	    115.43479323	    -21.11158769	    -12.34172838	     27.37089342
      0.01750000	     -0.99487489	     -6.72475006	     88.25190168	      0.06742734	      1.74000394	      1.86010335	     86.11145617	     -2.69563403	      4.70103727	   -152.83344371	     24.00078391	      1.25910625	     11.29873818	     82.72790392	     -8.24826092	     18.33898956	   -151.32397951	     21.48455999	     31.64853888	     22.59401340	    -52.71445863	     -4.00687327	      2.81030262	     35.39995548	      1.00884194	     -7.08763083	     45.43554231	    -27.45777814	     -3.38915385	     78.51034773	     99.61843362	     -2.00194498	    -10.35161262	     -3.59594915	     58.18757148	    -20.92584688	     10.83797948	     53.28345409	    115.54918776	    -21.17541806	    -12.24621526	     27.32534097
      0.02000000	     -0.94506906	     -6.87684085	     88.27583165	      0.06735809	      1.74009316	      1.85861304	     86.04018461	     -2.69798488	      4.64125675	   -152.79550180	     23.99699759	      1.15484316	     11.28844710	     82.62392729	     -8.27152895	     18.39058160	   -151.30457742	     21.58439232	     31.68932298	     22.60906781	    -52.57717678	     -3.93621892	      2.88782243	     35.34344098	      0.92788104	     -7.10180808	     46.67226434	    -27.97277519	     -2.74270390	     78.68971693	     99.77875257	     -2.09485739	    -10.30465442	     -3.56694715	     59.47862215	    -21.04428767	     11.72959236	     53.13474038	    115.94246613	    -21.40317839	    -12.11309992	     27.22925883
      0.02250000	     -0.92766818	     -7.11448726	     88.28502081	      0.06724644	      1.74025778	      1.85712244	     86.04576080	     -2.72876454	      4.62189012	   -152.73589374	     23.97761587	      1.12177731	     11.28158725	     82.59951921	     -8.28204319	     18.37823950	   -151.23395734	     21.60321264	     31.70349797	     22.62071720	    -52.40176460	     -3.90125583	      2.90541919	     35.68137897	      0.95098666	     -7.13827846	     47.91965226	    -28.10535861	     -2.49611977	     78.79744901	     99.83570545	     -2.11287770	    -10.28207384	     -3.54241527	     60.63860384	    -20.91065058	     11.94507703	     53.02645105	    116.05653062	    -21.49522899	    -11.99543931	     27.16897458
      0.02500000	     -0.91670190	     -7.35097498	     88.30356197	      0.06707815	      1.74035782	      1.85565659	     86.05329042	     -2.75676030	      4.61162275	   -152.67853944	     23.96850601	      1.05735492	     11.27345759	     82.57975828	     -8.26894455	     18.35092563	   -151.17482774	     21.64193607	     31.70548606	     22.64748309	    -52.20684829	     -3.85701359	      2.92507678	     35.87410830	      0.93599597	     -7.17097379	     49.20226243	    -28.41818822	     -2.03167501	     78.91202151	     99.94412898	     -2.06624209	    -10.23787625	     -3.47264792	     61.84996069	    -20.85357154	     12.39401995	     52.90532467	    116.27829988	    -21.55304636	    -11.86450603	     27.11450201
      0.02750000	     -0.91696980	     -7.59956513	     88.33676955	      0.06690293	      1.74049304	      1.85420793	     86.01934654	     -2.73492622	      4.58909364	   -152.58013281	     23.94954428	      1.00934726	     11.26460778	     82.55961705	     -8.21600810	     18.27180991	   -151.07646323	     21.66020361	     31.71285180	     22.67417450	    -51.99231290	     -3.82139708	      2.93304446	     36.01013286	      0.92737339	     -7.20242276	     50.41773211	    -28.62108734	     -1.70010369	     79.02773809	    100.02937938	     -2.04071098	    -10.20618894	     -3.41512988	     62.99389744	    -20.75950444	     12.74711772	     52.86311359	    116.46171752	    -21.60106022	    -11.75062179	     27.06156860
      0.03000000	     -0.93508716	     -7.84775136	     88.35878198	      0.06673947	      1.74054856	      1.85273802	     86.04071929	     -2.75961662	      4.60471475	   -152.53251107	     23.94240596	      0.93787698	     11.25521657	     82.56146631	     -8.18473812	     18.20947049	   -151.01898500	     21.67509108	     31.71014235	     22.71058579	    -51.78140067	     -3.79674663	      2.92202714	     36.17061873	      0.92593204	     -7.24306847	     51.71596784	    -28.84912326	     -1.29039645	     79.11100812	    100.14019342	     -1.99091815	    -10.15449735	     -3.33687409	     64.20328991	    -20.68809087	     13.16795361	     52.75742216	    116.67865417	    -21.63460293	    -11.59562326	     27.00183040
